<svg width="87" xmlns="http://www.w3.org/2000/svg" height="87" fill="none"><g xml:space="preserve" style="fill: rgb(0, 0, 0);"><path d="M62.990,0.000L24.008,0.000C10.770,0.000,0.000,10.771,0.000,24.009L0.000,62.991C0.000,76.229,10.770,86.999,24.008,86.999L62.990,86.999C76.229,86.999,86.999,76.229,86.999,62.991L86.999,24.009C87.000,10.771,76.229,0.000,62.990,0.000ZZM79.281,62.991C79.281,71.973,71.973,79.280,62.991,79.280L24.008,79.280C15.026,79.281,7.719,71.973,7.719,62.991L7.719,24.009C7.719,15.027,15.026,7.719,24.008,7.719L62.990,7.719C71.973,7.719,79.280,15.027,79.280,24.009L79.281,62.991ZZ" style="fill: rgb(255, 255, 255); fill-opacity: 1;" class="fills"/><path d="M43.500,21.083C31.139,21.083,21.082,31.140,21.082,43.501C21.082,55.861,31.139,65.917,43.500,65.917C55.861,65.917,65.917,55.861,65.917,43.501C65.917,31.140,55.861,21.083,43.500,21.083ZZM43.500,58.198C35.395,58.198,28.801,51.605,28.801,43.500C28.801,35.395,35.395,28.802,43.500,28.802C51.605,28.802,58.198,35.395,58.198,43.500C58.198,51.605,51.604,58.198,43.500,58.198ZZ" style="fill: rgb(255, 255, 255); fill-opacity: 1;" class="fills"/><path d="M66.857,14.538C65.370,14.538,63.909,15.140,62.859,16.195C61.804,17.245,61.197,18.706,61.197,20.199C61.197,21.686,61.804,23.147,62.859,24.202C63.909,25.252,65.370,25.859,66.857,25.859C68.350,25.859,69.806,25.252,70.861,24.202C71.916,23.147,72.518,21.686,72.518,20.199C72.518,18.706,71.916,17.245,70.861,16.195C69.811,15.140,68.350,14.538,66.857,14.538ZZ" style="fill: rgb(255, 255, 255); fill-opacity: 1;" class="fills"/></g></svg>