<svg width="111" xmlns="http://www.w3.org/2000/svg" height="75.356" fill="none"><g style="fill: rgb(0, 0, 0);"><path d="M97.442,0.000L13.558,0.000C6.083,0.000,0.000,6.083,0.000,13.558L0.000,61.798C0.000,69.274,6.083,75.356,13.558,75.356L97.442,75.356C104.917,75.356,111.000,69.274,111.000,61.798L111.000,13.560C111.001,6.083,104.919,0.000,97.442,0.000ZZM90.816,8.845L55.500,31.598L20.184,8.845L90.816,8.845ZZM97.442,66.512L13.558,66.512C10.959,66.512,8.845,64.397,8.845,61.799L8.845,13.811L52.771,42.057C52.830,42.093,52.894,42.118,52.954,42.152C53.017,42.188,53.082,42.222,53.147,42.254C53.488,42.430,53.839,42.571,54.197,42.664C54.234,42.674,54.270,42.679,54.307,42.688C54.701,42.780,55.099,42.838,55.497,42.838C55.499,42.838,55.500,42.838,55.500,42.838C55.503,42.838,55.504,42.838,55.506,42.838C55.904,42.838,56.302,42.782,56.696,42.688C56.732,42.679,56.769,42.674,56.806,42.664C57.164,42.571,57.514,42.430,57.856,42.254C57.921,42.222,57.986,42.188,58.049,42.152C58.109,42.118,58.173,42.093,58.232,42.057L102.158,13.811L102.158,61.798C102.156,64.397,100.041,66.512,97.442,66.512ZZ" style="fill: rgb(255, 255, 255); fill-opacity: 1;" class="fills" xml:space="preserve"/></g></svg>